<svg xmlns="http://www.w3.org/2000/svg" width="130.22" height="39.846" viewBox="0 0 130.22 39.846">
  <g id="Header_Logo" data-name="Header Logo" transform="translate(-443 -80.208)">
    <g id="Group_6" data-name="Group 6" transform="translate(443 80.208)">
      <path id="Path_30" data-name="Path 30" d="M460.495,108.179c-.716-.425-1.358-.21-2.077.7a6.658,6.658,0,0,1-8.556,2.018,7.377,7.377,0,0,1-3.809-8.331,7.006,7.006,0,0,1,5.348-5.411,6.419,6.419,0,0,1,7.031,2.581c.733.95,1.517,1.14,2.227.575s.722-1.413.019-2.344A9.2,9.2,0,0,0,451.2,94.21a10.295,10.295,0,0,0-2.555,19.279,11.392,11.392,0,0,0,1.995.687,9.2,9.2,0,0,0,4.472.152,9.018,9.018,0,0,0,1.825-.6,9.6,9.6,0,0,0,3.131-2.32,6.828,6.828,0,0,0,1.011-1.4A1.41,1.41,0,0,0,460.495,108.179Z" transform="translate(-443 -84.755)" fill="#fff"/>
      <path id="Path_31" data-name="Path 31" d="M542.24,92.008q0-2.043,0-4.086c0-1.689.007-3.693.012-5.373,0-.127,0-.248-.013-.365v-.222a1.67,1.67,0,0,0-1.036-1.653,1.632,1.632,0,0,0-.53-.1,1.436,1.436,0,0,0-.737.184,1.709,1.709,0,0,0-.477.4,1.632,1.632,0,0,0-.466,1.189C539,87.383,539,93.2,539,98.51q0,2.044,0,4.087,0,2.533-.011,5.057c0,.127,0,.248.013.365v.221a1.671,1.671,0,0,0,1.035,1.653,1.635,1.635,0,0,0,.53.1,1.432,1.432,0,0,0,.738-.183,1.7,1.7,0,0,0,.477-.4,1.624,1.624,0,0,0,.466-1.188C542.241,102.819,542.241,97.323,542.24,92.008Z" transform="translate(-474.559 -80.208)" fill="#fff"/>
      <g id="Group_5" data-name="Group 5" transform="translate(110.375 9.241)">
        <path id="Path_32" data-name="Path 32" d="M637,96.031c0,.008,0,.016,0,.025C637,96.047,637,96.039,637,96.031Z" transform="translate(-617.155 -94.651)" fill="#fff"/>
        <path id="Path_33" data-name="Path 33" d="M636.985,95.785c0,.029,0,.058.005.087C636.989,95.843,636.988,95.814,636.985,95.785Z" transform="translate(-617.151 -94.57)" fill="#fff"/>
        <path id="Path_34" data-name="Path 34" d="M636.993,95.915c0,.026,0,.052,0,.078C637,95.967,636.994,95.941,636.993,95.915Z" transform="translate(-617.153 -94.613)" fill="#fff"/>
        <path id="Path_35" data-name="Path 35" d="M626.933,95.932c0-.028,0-.056-.005-.085A2.367,2.367,0,0,0,626.4,94.7a2.183,2.183,0,0,0-.722-.518,2.3,2.3,0,0,0-.895-.2,2.125,2.125,0,0,0-1.552.814,2.78,2.78,0,0,0-.333.552c-1.859,4.029-3.769,8.119-5.616,12.074l-.1.208h0l-.015.033q-1.406-3.005-2.808-6.012Q612.81,98.323,611.256,95a1.866,1.866,0,0,0-2.562-.817,2,2,0,0,0-1.187,2.343,2.746,2.746,0,0,0,.191.46l.049.1,1.794,3.842c1.867,4,3.8,8.133,5.679,12.208a2.2,2.2,0,0,0,1.824,1.359c.048.006.1.009.143.011h0c.048,0,.1,0,.143-.011a2.134,2.134,0,0,0,1.51-.834,2.79,2.79,0,0,0,.314-.525c1.88-4.074,3.811-8.209,5.679-12.208q.9-1.921,1.794-3.842l.05-.1a2.858,2.858,0,0,0,.191-.46,1.769,1.769,0,0,0,.07-.5c0-.008,0-.016,0-.023C626.937,95.982,626.934,95.957,626.933,95.932Z" transform="translate(-607.436 -93.976)" fill="#fff"/>
      </g>
      <path id="Path_36" data-name="Path 36" d="M513.656,94.509a10.083,10.083,0,1,0,0,20.165h1.116a1.675,1.675,0,1,0,0-3.351h-1.116a6.717,6.717,0,1,1,0-13.433,6.165,6.165,0,0,1,6.158,6.158v8.966a1.676,1.676,0,0,0,3.352,0v-8.966A9.516,9.516,0,0,0,513.656,94.509Z" transform="translate(-462.914 -84.91)" fill="#fff"/>
      <path id="Path_37" data-name="Path 37" d="M587.806,93.976a10.281,10.281,0,1,0,0,20.563,11.152,11.152,0,0,0,8.05-3.386,1.709,1.709,0,0,0-2.479-2.355,7.727,7.727,0,0,1-5.571,2.324,6.849,6.849,0,1,1,0-13.7,6.291,6.291,0,0,1,6.095,4.756h-8.388a1.709,1.709,0,0,0,0,3.417h10.282a1.714,1.714,0,0,0,1.708-1.709V103.7A9.7,9.7,0,0,0,587.806,93.976Z" transform="translate(-487.227 -84.735)" fill="#fff"/>
      <path id="Path_38" data-name="Path 38" d="M482.3,94.037c-.039,0-.079,0-.119,0s-.079,0-.119,0a9.694,9.694,0,0,0-7.231,3.241,10.225,10.225,0,0,0-.129,13.9,9.66,9.66,0,0,0,7.36,3.378c.04,0,.079,0,.119,0s.08,0,.119,0a9.693,9.693,0,0,0,7.231-3.241,10.226,10.226,0,0,0,.13-13.9A9.664,9.664,0,0,0,482.3,94.037Zm5.388,14.109a1.76,1.76,0,0,0-.15.191c-.06.091-.125.179-.189.266a6.532,6.532,0,0,1-10.189.189c-.117-.147-.231-.3-.336-.456a1.728,1.728,0,0,0-.2-.25,6.837,6.837,0,0,1,.054-7.638,1.763,1.763,0,0,0,.15-.191c.06-.091.125-.179.189-.266A6.532,6.532,0,0,1,487.2,99.8c.117.147.23.3.335.456a1.733,1.733,0,0,0,.2.25,6.84,6.84,0,0,1-.054,7.638Z" transform="translate(-452.547 -84.755)" fill="#fff"/>
      <path id="Path_39" data-name="Path 39" d="M565.127,81.371c0-.61-.746-1.093-1.658-1.093s-1.659.492-1.659,1.093v17.06c0,.025,0,.052,0,.078v1.541a6.1,6.1,0,0,1-6.1,6.1,6.65,6.65,0,0,1,0-13.3h1.106a1.659,1.659,0,1,0,0-3.318h-1.106a9.984,9.984,0,0,0,0,19.967,9.42,9.42,0,0,0,9.415-9.446V91.173c0-.04,0-.079,0-.117Z" transform="translate(-476.775 -80.231)" fill="#fff"/>
    </g>
    <g id="Group_7" data-name="Group 7" transform="translate(484.192 113.41)">
      <path id="Path_40" data-name="Path 40" d="M504.735,129.924a.258.258,0,0,1,.252-.252.246.246,0,0,1,.177.075.242.242,0,0,1,.075.177v1.188h.691a.252.252,0,0,1,0,.5h-.691v2.843a.238.238,0,0,1-.075.176.243.243,0,0,1-.353,0,.239.239,0,0,1-.076-.176v-2.843h-.115a.24.24,0,0,1-.176-.076.243.243,0,0,1-.076-.177.259.259,0,0,1,.252-.252h.115Z" transform="translate(-504.368 -129.672)" fill="#fff"/>
      <path id="Path_41" data-name="Path 41" d="M508.787,132.069a.252.252,0,0,1,.5,0v1.9a1.081,1.081,0,0,0,.087.432,1.054,1.054,0,0,0,.237.349,1.146,1.146,0,0,0,.35.234,1.065,1.065,0,0,0,.428.086,1.1,1.1,0,0,0,.432-.086,1.135,1.135,0,0,0,.352-.234,1.058,1.058,0,0,0,.238-.349,1.092,1.092,0,0,0,.086-.432v-1.9a.252.252,0,0,1,.5,0v1.9a1.582,1.582,0,0,1-.127.626,1.629,1.629,0,0,1-.345.514,1.681,1.681,0,0,1-.515.35,1.6,1.6,0,0,1-1.257,0,1.629,1.629,0,0,1-.849-.864,1.57,1.57,0,0,1-.126-.626Z" transform="translate(-505.821 -130.377)" fill="#fff"/>
      <path id="Path_42" data-name="Path 42" d="M515.565,131.977a.252.252,0,0,1,.5,0v.432a1.635,1.635,0,0,1,.237-.3,1.966,1.966,0,0,1,.349-.281,2.134,2.134,0,0,1,.429-.209,1.381,1.381,0,0,1,.475-.083.27.27,0,0,1,.281.281.254.254,0,0,1-.086.2.321.321,0,0,1-.217.075,1.227,1.227,0,0,0-.594.147,1.618,1.618,0,0,0-.463.379,1.714,1.714,0,0,0-.3.522,1.655,1.655,0,0,0-.108.579v1.353a.252.252,0,0,1-.5,0Z" transform="translate(-508.049 -130.285)" fill="#fff"/>
      <path id="Path_43" data-name="Path 43" d="M520.231,131.977a.259.259,0,0,1,.251-.252.258.258,0,0,1,.252.252v.079a.859.859,0,0,1,.195-.213,1.364,1.364,0,0,1,.27-.165,1.55,1.55,0,0,1,.313-.1,1.575,1.575,0,0,1,.331-.036,1.491,1.491,0,0,1,.615.13,1.659,1.659,0,0,1,.861.868,1.572,1.572,0,0,1,.129.63v1.908a.259.259,0,0,1-.251.252.258.258,0,0,1-.252-.252v-1.908a1.1,1.1,0,0,0-.087-.432,1.113,1.113,0,0,0-.59-.59,1.064,1.064,0,0,0-.425-.087,1.017,1.017,0,0,0-.616.2,1.246,1.246,0,0,0-.406.5,1.019,1.019,0,0,0-.087.36v1.958a.252.252,0,0,1-.5,0Z" transform="translate(-509.583 -130.285)" fill="#fff"/>
      <path id="Path_44" data-name="Path 44" d="M527,130.275a.294.294,0,1,1,.086.216A.293.293,0,0,1,527,130.275Zm.043,1.187a.252.252,0,0,1,.5,0v3.1a.236.236,0,0,1-.076.176.252.252,0,0,1-.428-.176Z" transform="translate(-511.808 -129.771)" fill="#fff"/>
      <path id="Path_45" data-name="Path 45" d="M529.958,131.977a.259.259,0,0,1,.252-.252.242.242,0,0,1,.177.076.239.239,0,0,1,.075.176v.079a.835.835,0,0,1,.195-.213,1.363,1.363,0,0,1,.27-.165,1.529,1.529,0,0,1,.313-.1,1.591,1.591,0,0,1,.332-.036,1.5,1.5,0,0,1,.615.13,1.673,1.673,0,0,1,.512.35,1.65,1.65,0,0,1,.348.518,1.562,1.562,0,0,1,.129.63v1.908a.249.249,0,0,1-.428.176.242.242,0,0,1-.076-.176v-1.908a1.094,1.094,0,0,0-.086-.432,1.113,1.113,0,0,0-.59-.59,1.069,1.069,0,0,0-.425-.087,1.018,1.018,0,0,0-.616.2,1.254,1.254,0,0,0-.407.5,1.046,1.046,0,0,0-.086.36v1.958a.238.238,0,0,1-.075.176.242.242,0,0,1-.177.076.259.259,0,0,1-.252-.252Z" transform="translate(-512.781 -130.285)" fill="#fff"/>
      <path id="Path_46" data-name="Path 46" d="M536.416,135.858a.258.258,0,0,1,.251-.252.209.209,0,0,1,.13.043.368.368,0,0,1,.093.1,1.647,1.647,0,0,0,.2.245,1.492,1.492,0,0,0,.472.317,1.484,1.484,0,0,0,1.144,0,1.492,1.492,0,0,0,.472-.317,1.475,1.475,0,0,0,.317-.472,1.436,1.436,0,0,0,.115-.573v-.107l-.08.079a1.952,1.952,0,0,1-.627.422,2,2,0,0,1-1.539,0,2,2,0,0,1-1.055-1.055,2,2,0,0,1,0-1.54,2,2,0,0,1,1.055-1.055,2,2,0,0,1,1.539,0,1.908,1.908,0,0,1,.627.429.562.562,0,0,1,.08.079v-.224a.249.249,0,0,1,.428-.176.236.236,0,0,1,.077.176v2.973a1.927,1.927,0,0,1-.155.771,1.983,1.983,0,0,1-1.056,1.055,1.987,1.987,0,0,1-1.539,0,2.02,2.02,0,0,1-.634-.428,1.586,1.586,0,0,1-.258-.324A.27.27,0,0,1,536.416,135.858Zm.245-2.341a1.471,1.471,0,0,0,.431,1.044,1.483,1.483,0,0,0,.472.317,1.484,1.484,0,0,0,1.144,0,1.481,1.481,0,0,0,.789-.788,1.477,1.477,0,0,0,0-1.145,1.479,1.479,0,0,0-.789-.789,1.484,1.484,0,0,0-1.144,0,1.475,1.475,0,0,0-.788.789A1.446,1.446,0,0,0,536.661,133.517Z" transform="translate(-514.819 -130.285)" fill="#fff"/>
      <path id="Path_47" data-name="Path 47" d="M551.163,132.9a1.936,1.936,0,0,1-.154.771,1.991,1.991,0,0,1-1.055,1.055,2,2,0,0,1-1.54,0,1.993,1.993,0,0,1-1.055-1.055,2,2,0,0,1,0-1.54,1.991,1.991,0,0,1,1.055-1.055,1.936,1.936,0,0,1,.771-.154,1.8,1.8,0,0,1,.842.223,1.93,1.93,0,0,1,.634.469v-1.692a.24.24,0,0,1,.076-.177.244.244,0,0,1,.352,0,.24.24,0,0,1,.076.177Zm-.5,0a1.445,1.445,0,0,0-.115-.572,1.485,1.485,0,0,0-.789-.789,1.475,1.475,0,0,0-1.616.317,1.5,1.5,0,0,0-.318.471,1.485,1.485,0,0,0,0,1.145,1.493,1.493,0,0,0,.318.471,1.46,1.46,0,0,0,.472.317,1.482,1.482,0,0,0,1.144,0,1.487,1.487,0,0,0,.789-.788A1.454,1.454,0,0,0,550.659,132.9Z" transform="translate(-518.451 -129.672)" fill="#fff"/>
      <path id="Path_48" data-name="Path 48" d="M555.032,131.977a.252.252,0,0,1,.5,0v.432a1.671,1.671,0,0,1,.238-.3,1.918,1.918,0,0,1,.349-.281,2.129,2.129,0,0,1,.428-.209,1.384,1.384,0,0,1,.475-.083.27.27,0,0,1,.281.281.254.254,0,0,1-.086.2.321.321,0,0,1-.216.075,1.223,1.223,0,0,0-.594.147,1.643,1.643,0,0,0-.465.379,1.743,1.743,0,0,0-.3.522,1.641,1.641,0,0,0-.108.579v1.353a.252.252,0,0,1-.5,0Z" transform="translate(-521.025 -130.285)" fill="#fff"/>
      <path id="Path_49" data-name="Path 49" d="M559.683,133.366a.346.346,0,0,0-.007.076v.075a1.455,1.455,0,0,0,.115.573,1.48,1.48,0,0,0,.789.788,1.483,1.483,0,0,0,1.774-.5.473.473,0,0,1,.094-.1.211.211,0,0,1,.137-.046.245.245,0,0,1,.177.075.247.247,0,0,1,.075.177.345.345,0,0,1-.075.2,2.036,2.036,0,0,1-.213.241,1.955,1.955,0,0,1-.594.411,1.886,1.886,0,0,1-.8.165,1.925,1.925,0,0,1-.771-.154,1.993,1.993,0,0,1-1.055-1.055,1.991,1.991,0,0,1,0-1.54,1.991,1.991,0,0,1,1.055-1.055,2,2,0,0,1,1.408-.05,1.916,1.916,0,0,1,.558.3,2.085,2.085,0,0,1,.439.465,1.885,1.885,0,0,1,.274.593c0,.015.009.032.015.051a.4.4,0,0,1,.013.093.191.191,0,0,1-.075.173.319.319,0,0,1-.183.05Zm2.786-.5a1.357,1.357,0,0,0-.555-.609,1.5,1.5,0,0,0-.763-.212,1.468,1.468,0,0,0-.335.043,1.555,1.555,0,0,0-.367.14,1.651,1.651,0,0,0-.35.252,1.253,1.253,0,0,0-.273.385Z" transform="translate(-522.386 -130.285)" fill="#fff"/>
      <path id="Path_50" data-name="Path 50" d="M569.641,134.842l-.079.079a1.975,1.975,0,0,1-.627.422,2,2,0,0,1-1.54,0,1.993,1.993,0,0,1-1.054-1.055,1.99,1.99,0,0,1,0-1.54,1.991,1.991,0,0,1,1.054-1.055,2,2,0,0,1,1.54,0,1.984,1.984,0,0,1,1.055,1.055,1.923,1.923,0,0,1,.155.77v1.555a.236.236,0,0,1-.076.176.24.24,0,0,1-.177.076.259.259,0,0,1-.252-.252Zm-2.952-1.325a1.457,1.457,0,0,0,.115.573,1.481,1.481,0,0,0,.789.788,1.484,1.484,0,0,0,1.144,0,1.481,1.481,0,0,0,.471-.317,1.457,1.457,0,0,0,.317-.471,1.477,1.477,0,0,0,0-1.145,1.481,1.481,0,0,0-.788-.789,1.484,1.484,0,0,0-1.144,0,1.476,1.476,0,0,0-.472.317,1.491,1.491,0,0,0-.317.471A1.448,1.448,0,0,0,566.689,133.517Z" transform="translate(-524.692 -130.285)" fill="#fff"/>
      <path id="Path_51" data-name="Path 51" d="M573.907,131.977a.243.243,0,0,1,.076-.176.252.252,0,0,1,.429.176v.072a1.219,1.219,0,0,1,.471-.371,1.45,1.45,0,0,1,.623-.14,1.48,1.48,0,0,1,.771.2,1.7,1.7,0,0,1,.561.547,1.545,1.545,0,0,1,.587-.547,1.655,1.655,0,0,1,.8-.2,1.512,1.512,0,0,1,.623.13,1.638,1.638,0,0,1,.976,1.5v1.908a.252.252,0,0,1-.5,0v-1.908a1.1,1.1,0,0,0-.087-.432,1.153,1.153,0,0,0-.234-.352,1.086,1.086,0,0,0-.775-.324,1.052,1.052,0,0,0-.615.187,1.124,1.124,0,0,0-.4.489c-.025.063-.046.128-.065.195a.745.745,0,0,0-.029.209v1.937a.237.237,0,0,1-.076.176.252.252,0,0,1-.428-.176v-1.908a1.415,1.415,0,0,0-.111-.443,1.151,1.151,0,0,0-.238-.352,1.079,1.079,0,0,0-.342-.23,1.058,1.058,0,0,0-.418-.083,1.021,1.021,0,0,0-.612.2,1.141,1.141,0,0,0-.4.5,1.174,1.174,0,0,0-.086.36v1.958a.252.252,0,0,1-.5,0Z" transform="translate(-527.23 -130.285)" fill="#fff"/>
      <path id="Path_52" data-name="Path 52" d="M584.568,134.489a.257.257,0,0,1,.065-.18.219.219,0,0,1,.173-.072.179.179,0,0,1,.126.043.331.331,0,0,1,.076.107.98.98,0,0,0,.356.475.964.964,0,0,0,.515.132,1.2,1.2,0,0,0,.256-.029.728.728,0,0,0,.241-.1.574.574,0,0,0,.18-.179.511.511,0,0,0,.072-.284.652.652,0,0,0-.068-.316.61.61,0,0,0-.187-.2,1.1,1.1,0,0,0-.27-.134c-.1-.033-.207-.064-.318-.093-.139-.038-.277-.085-.414-.136a1.57,1.57,0,0,1-.367-.2.974.974,0,0,1-.263-.3.885.885,0,0,1-.1-.438.838.838,0,0,1,.1-.4,1.128,1.128,0,0,1,.271-.335,1.264,1.264,0,0,1,.393-.226,1.315,1.315,0,0,1,.467-.083,1.219,1.219,0,0,1,.392.057,1.536,1.536,0,0,1,.289.13.823.823,0,0,1,.183.144.606.606,0,0,1,.079.1.439.439,0,0,1,.08.238.238.238,0,0,1-.055.158.213.213,0,0,1-.176.065.283.283,0,0,1-.13-.029.311.311,0,0,1-.115-.13.526.526,0,0,0-.2-.194.678.678,0,0,0-.35-.08.824.824,0,0,0-.277.047.812.812,0,0,0-.234.126.589.589,0,0,0-.158.184.428.428,0,0,0-.058.212.4.4,0,0,0,.068.234.571.571,0,0,0,.184.165,1.454,1.454,0,0,0,.252.119c.091.034.185.064.281.093a4.629,4.629,0,0,1,.483.177,1.592,1.592,0,0,1,.389.238,1.009,1.009,0,0,1,.259.338,1.113,1.113,0,0,1,.093.479,1,1,0,0,1-.1.461,1.066,1.066,0,0,1-.277.342,1.187,1.187,0,0,1-.407.213,1.68,1.68,0,0,1-.493.071,1.249,1.249,0,0,1-.622-.144,1.5,1.5,0,0,1-.428-.352,1.657,1.657,0,0,1-.177-.263A.533.533,0,0,1,584.568,134.489Z" transform="translate(-530.735 -130.285)" fill="#fff"/>
      <path id="Path_53" data-name="Path 53" d="M594.041,129.924a.257.257,0,0,1,.252-.252.247.247,0,0,1,.177.075.244.244,0,0,1,.075.177v1.188h.691a.259.259,0,0,1,.252.252.243.243,0,0,1-.076.177.24.24,0,0,1-.177.076h-.691v2.843a.252.252,0,0,1-.5,0v-2.843h-.115a.241.241,0,0,1-.177-.076.244.244,0,0,1-.075-.177.258.258,0,0,1,.252-.252h.115Z" transform="translate(-533.729 -129.672)" fill="#fff"/>
      <path id="Path_54" data-name="Path 54" d="M597.567,133.517a1.922,1.922,0,0,1,.155-.77,1.991,1.991,0,0,1,1.055-1.055,2,2,0,0,1,1.54,0,1.983,1.983,0,0,1,1.055,1.055,1.991,1.991,0,0,1,0,1.54,1.985,1.985,0,0,1-1.055,1.055,2,2,0,0,1-1.54,0,1.993,1.993,0,0,1-1.055-1.055A1.925,1.925,0,0,1,597.567,133.517Zm.5,0a1.455,1.455,0,0,0,.115.573,1.48,1.48,0,0,0,.789.788,1.484,1.484,0,0,0,1.144,0,1.479,1.479,0,0,0,.471-.317,1.472,1.472,0,0,0,.432-1.044,1.436,1.436,0,0,0-.115-.572,1.481,1.481,0,0,0-.788-.789,1.484,1.484,0,0,0-1.144,0,1.479,1.479,0,0,0-.789.789A1.446,1.446,0,0,0,598.071,133.517Z" transform="translate(-535.009 -130.285)" fill="#fff"/>
      <path id="Path_55" data-name="Path 55" d="M611.445,134.353a1,1,0,0,1,.126-.155.24.24,0,0,1,.177-.068.187.187,0,0,1,.151.068.235.235,0,0,1,.058.155.435.435,0,0,1-.058.212,1.508,1.508,0,0,1-.151.219,1.941,1.941,0,0,1-.669.54,1.866,1.866,0,0,1-.806.173,1.925,1.925,0,0,1-.771-.154,1.993,1.993,0,0,1-1.055-1.055,2,2,0,0,1,0-1.54,1.991,1.991,0,0,1,1.055-1.055,1.936,1.936,0,0,1,.771-.154,1.85,1.85,0,0,1,1.461.669,1.846,1.846,0,0,1,.158.227.463.463,0,0,1,.064.234c0,.144-.069.215-.209.215a.2.2,0,0,1-.169-.083c-.041-.055-.085-.111-.133-.169a1.859,1.859,0,0,0-.5-.435,1.328,1.328,0,0,0-.677-.155,1.443,1.443,0,0,0-.572.115,1.462,1.462,0,0,0-.472.317,1.5,1.5,0,0,0-.317.471,1.485,1.485,0,0,0,0,1.145,1.492,1.492,0,0,0,.317.471,1.462,1.462,0,0,0,.472.317,1.414,1.414,0,0,0,1.194-.036A1.384,1.384,0,0,0,611.445,134.353Z" transform="translate(-538.535 -130.285)" fill="#fff"/>
      <path id="Path_56" data-name="Path 56" d="M614.823,133.517a1.923,1.923,0,0,1,.155-.77,1.985,1.985,0,0,1,1.055-1.055,2,2,0,0,1,1.54,0,1.99,1.99,0,0,1,1.055,1.055,1.991,1.991,0,0,1,0,1.54,1.991,1.991,0,0,1-1.055,1.055,2,2,0,0,1-1.54,0,1.986,1.986,0,0,1-1.055-1.055A1.926,1.926,0,0,1,614.823,133.517Zm.5,0a1.443,1.443,0,0,0,.115.573,1.48,1.48,0,0,0,.789.788,1.484,1.484,0,0,0,1.144,0,1.48,1.48,0,0,0,.471-.317,1.475,1.475,0,0,0,0-2.087,1.48,1.48,0,0,0-.471-.317,1.484,1.484,0,0,0-1.144,0,1.479,1.479,0,0,0-.789.789A1.434,1.434,0,0,0,615.326,133.517Z" transform="translate(-540.682 -130.285)" fill="#fff"/>
      <path id="Path_57" data-name="Path 57" d="M625.969,132.9a1.926,1.926,0,0,1-.155.771,1.985,1.985,0,0,1-1.055,1.055,2,2,0,0,1-1.54,0,1.993,1.993,0,0,1-1.054-1.055,1.99,1.99,0,0,1,0-1.54,1.991,1.991,0,0,1,1.054-1.055,1.937,1.937,0,0,1,.771-.154,1.8,1.8,0,0,1,.842.223,1.938,1.938,0,0,1,.634.469v-1.692a.24.24,0,0,1,.076-.177.244.244,0,0,1,.352,0,.24.24,0,0,1,.076.177Zm-.5,0a1.433,1.433,0,0,0-.115-.572,1.481,1.481,0,0,0-.788-.789,1.484,1.484,0,0,0-1.144,0,1.479,1.479,0,0,0-.789.789,1.484,1.484,0,0,0,0,1.145,1.481,1.481,0,0,0,.789.788,1.484,1.484,0,0,0,1.144,0,1.481,1.481,0,0,0,.471-.317,1.457,1.457,0,0,0,.317-.471A1.442,1.442,0,0,0,625.464,132.9Z" transform="translate(-543.044 -129.672)" fill="#fff"/>
      <path id="Path_58" data-name="Path 58" d="M629.716,133.366a.346.346,0,0,0-.007.076v.075a1.455,1.455,0,0,0,.115.573,1.481,1.481,0,0,0,.789.788,1.483,1.483,0,0,0,1.774-.5.457.457,0,0,1,.094-.1.211.211,0,0,1,.137-.046.244.244,0,0,1,.177.075.247.247,0,0,1,.075.177.345.345,0,0,1-.075.2,2.025,2.025,0,0,1-.213.241,1.954,1.954,0,0,1-.594.411,1.887,1.887,0,0,1-.8.165,1.925,1.925,0,0,1-.771-.154,1.993,1.993,0,0,1-1.055-1.055,1.991,1.991,0,0,1,0-1.54,1.991,1.991,0,0,1,1.055-1.055,2,2,0,0,1,1.408-.05,1.916,1.916,0,0,1,.558.3,2.084,2.084,0,0,1,.439.465,1.866,1.866,0,0,1,.273.593.467.467,0,0,1,.015.051.374.374,0,0,1,.014.093.191.191,0,0,1-.075.173.32.32,0,0,1-.183.05Zm2.786-.5a1.357,1.357,0,0,0-.554-.609,1.5,1.5,0,0,0-.763-.212,1.463,1.463,0,0,0-.335.043,1.555,1.555,0,0,0-.367.14,1.651,1.651,0,0,0-.35.252,1.243,1.243,0,0,0-.273.385Z" transform="translate(-545.41 -130.285)" fill="#fff"/>
    </g>
  </g>
</svg>
