<svg xmlns="http://www.w3.org/2000/svg" width="18" height="23.993" viewBox="0 0 18 23.993">
  <g id="Repositries_Icon" data-name="Repositries Icon" transform="translate(-266.946 -259)">
    <path id="Path_134" data-name="Path 134" d="M268.214,259h15.464a.287.287,0,0,0,.061.033,1.389,1.389,0,0,1,1.207,1.535q0,8.926,0,17.852c0,.07,0,.141,0,.211a1.305,1.305,0,0,1-.875,1.217,2.208,2.208,0,0,1-.751.142c-2.358.01-4.717.006-7.075.006h-.295v3H275.9a2.074,2.074,0,0,0-.154-.2c-.578-.581-1.16-1.158-1.736-1.741a3.574,3.574,0,0,1-.26-.332c-.088.072-.12.093-.146.12q-1.019,1.017-2.036,2.037a.628.628,0,0,0-.073.113h-.047v-2.977a.644.644,0,0,0-.082-.017l-2.763,0a1.47,1.47,0,0,1-1.656-1.657q0-8.757,0-17.515C266.946,259.667,267.146,259.38,268.214,259Zm3.253,1.511v13.47H283.44v-13.47Zm4.484,17.961a.628.628,0,0,0,.092.018c1.967,0,3.934.011,5.9,0a1.41,1.41,0,0,0,1.47-1.243c.055-.57.011-1.149.011-1.731H268.45c0,.091,0,.167,0,.244,0,.453-.022.907.013,1.357a1.311,1.311,0,0,0,1.016,1.307c.641.091,1.3.07,1.976.1v-1.506h4.494Z" fill="#2b3046"/>
    <path id="Path_135" data-name="Path 135" d="M396.767,323.286v1.473h-1.481v-1.473Z" transform="translate(-122.326 -61.273)" fill="#2b3046"/>
    <path id="Path_136" data-name="Path 136" d="M395.182,388.693v-1.479h1.481v1.479Z" transform="translate(-122.227 -122.206)" fill="#2b3046"/>
    <path id="Path_137" data-name="Path 137" d="M395.119,452.767v-1.472h1.48v1.472Z" transform="translate(-122.167 -183.284)" fill="#2b3046"/>
    <path id="Path_138" data-name="Path 138" d="M396.761,516.769h-1.473v-1.481h1.473Z" transform="translate(-122.328 -244.278)" fill="#2b3046"/>
  </g>
</svg>
