<svg id="Switch_Calendar_Icon" data-name="Switch Calendar Icon" xmlns="http://www.w3.org/2000/svg" width="20.46" height="20.46" viewBox="0 0 20.46 20.46">
  <path id="Path_88" data-name="Path 88" d="M12.375,23.139a.639.639,0,0,1,.639-.639h5.115a.639.639,0,0,1,0,1.279H13.014A.639.639,0,0,1,12.375,23.139Z" transform="translate(-5.342 -9.712)" fill="#2b3046" fill-rule="evenodd"/>
  <path id="Path_89" data-name="Path 89" d="M17.9,3.529H2.558A1.279,1.279,0,0,0,1.279,4.808V18.874a1.279,1.279,0,0,0,1.279,1.279H17.9a1.279,1.279,0,0,0,1.279-1.279V4.808A1.279,1.279,0,0,0,17.9,3.529ZM2.558,2.25A2.558,2.558,0,0,0,0,4.808V18.874a2.558,2.558,0,0,0,2.558,2.558H17.9a2.558,2.558,0,0,0,2.558-2.558V4.808A2.558,2.558,0,0,0,17.9,2.25Z" transform="translate(0 -0.971)" fill="#2b3046" fill-rule="evenodd"/>
  <path id="Path_90" data-name="Path 90" d="M7.389,0a.639.639,0,0,1,.639.639v.639a.639.639,0,1,1-1.279,0V.639A.639.639,0,0,1,7.389,0ZM18.9,0a.639.639,0,0,1,.639.639v.639a.639.639,0,1,1-1.279,0V.639A.639.639,0,0,1,18.9,0Z" transform="translate(-2.914)" fill="#2b3046" fill-rule="evenodd"/>
  <path id="Path_91" data-name="Path 91" d="M5.625,8.514a.639.639,0,0,1,.639-.639H19.052a.639.639,0,0,1,.639.639V9.793a.639.639,0,0,1-.639.639H6.264a.639.639,0,0,1-.639-.639Z" transform="translate(-2.428 -3.399)" fill="#2b3046"/>
</svg>
